# xmcd
#
# Track frame offsets:
#	150
#	13352
#	25462
#	34888
#	42700
#	53618
#	65470
#	77361
#
# Disc length: 1172 seconds
#
# Revision: 0
# Processed by: cddbd v1.4PL0 Copyright (c) Steve Scherf et al.
# Submitted via: dBpowerAMP V4.0
#
DISCID=66049208
DTITLE=Dolly Parton - Midnight Country
DYEAR=1900
DGENRE=Country
TTITLE0=Little Blossom
TTITLE1=Two Little Orphans
TTITLE2=Girl Left Alone
TTITLE3=Puppy Love
TTITLE4=Honky Tonk Angels
TTITLE5=Make Makin' Believe
TTITLE6=Letter To Heaven
TTITLE7=Release Me
EXTD=
EXTT0=
EXTT1=
EXTT2=
EXTT3=
EXTT4=
EXTT5=
EXTT6=
EXTT7=
PLAYORDER=
